<svg id="Layer_1" data-name="Layer 1" xmlns="http://www.w3.org/2000/svg" viewBox="0 0 512 512"><title>basketball-handdrawn</title><path d="M247.9,387.36s3.61,2.05,3.6,2.08c-.15.26-9-2.55-9.3-2-.16.28,9.49,5.07,9.31,5.39s-11.2-.42-11.56.21c-.56,1,3.16.89,2.76,1.6-.14.25-5.38-1.07-5.54-.79-.76,1.32,4.13.87,3.48,2-.29.5-8.9,1.85-9.18,2.33-.87,1.51,17.8,8.84,17.17,9.93-.74,1.28-29.33-12.28-30.28-10.64-1.12,2,24.89,12.09,23.89,13.82-1.14,2-32.86-14.12-33.83-12.43-1.68,2.92,33.62,15.46,31.9,18.45-.62,1.07-34.14-15.31-35.24-13.4-1.38,2.4,43.09,21.65,41.67,24.11C245,431,191.49,393.21,190,395.8c-1.12,1.94,53.56,27.53,52.07,30.12s-42.37-24-43.16-22.65c-1.83,3.18,40,19.84,38.56,22.31-1.61,2.79-52.55-29.28-53.86-27-2.39,4.15,66.57,33.34,64.33,37.22-.92,1.6-47.41-31.37-49.28-28.12-1.43,2.48,54.63,27.55,52.88,30.59s-65.66-43.25-68-39.13,60.34,29.62,58.05,33.59c-2.46,4.27-62.59-36-64.28-33.11-2.76,4.8,62.1,32.33,60.54,35-2.28,4-64.52-33.52-65.83-31.26-3,5.23,69.75,35.51,67.66,39.14s-57.88-36.76-59.56-33.84c-2.45,4.26,65.34,33.8,63.61,36.8s-76.38-47.36-79.08-42.68c-1.5,2.6,77,40.62,75.27,43.55-1.81,3.14-58.51-37.33-60.18-34.43-2.38,4.13,69.8,36.53,68.14,39.42-1.77,3.07-81.85-46.1-83.78-42.75-2.3,4,88,46.49,86.11,49.82-2.21,3.83-83.31-48.26-86.25-43.15-3.14,5.44,75.95,35.89,72.47,41.93-3,5.25-83.73-51-86.39-46.42-3.92,6.8,99.67,52,97.22,56.25s-102.72-57.81-104.57-54.61c-4.09,7.09,106.25,56,103.89,60.11C244,477,152,417.17,149.18,422.15c-2.08,3.61,102.07,53.27,99.57,57.61-4.62,8-114.1-68.9-118-62.19-3,5.24,109.15,53.6,105,60.76S130.23,412.88,126.19,419.9c-3.27,5.67,124.77,61.51,120.16,69.52-4.36,7.56-114.16-76-118.67-68.17-5,8.65,121.88,62.24,118.31,68.45-4.08,7.08-112.24-70.19-115.84-63.93C126,433,244.74,484.9,241.64,490.29c-2.34,4.06-118.18-71.31-122.37-64-3.45,6,124.66,61,119.84,69.34-2.53,4.4-122.76-74.48-126.86-67.35-5,8.69,132,70.82,129.58,75-3.89,6.76-121.56-75.38-124.1-71-2.86,5,116.22,59.51,112.88,65.31C226,505.49,114.94,423.4,111,430.21s125.84,61.7,121,70c-3.11,5.4-125.2-76.52-129-69.88C100.81,434.24,216,484.89,211.29,493c-3.86,6.69-99.83-60.49-103.38-54.33s107.43,51.76,102.94,59.56c-2.74,4.75-106.61-59.81-108.78-56-1.94,3.37,92.15,43.68,88,50.91-2,3.46-87.66-48.28-89.81-44.56-1.56,2.7,61.23,29.87,58.82,34-1,1.67-36.38-18.06-37-17-.79,1.37,13.42,5.62,12.49,7.23" fill="none" stroke="#999" stroke-linecap="round" stroke-linejoin="round" stroke-width="1.36"/><path d="M246.85,297.83s3.66,2.08,3.64,2.11c-.16.28-9.36-2.81-9.71-2.21-.17.29,9.91,5.29,9.72,5.62s-12.77-1.44-13.18-.73c-.61,1.06,4.83,1.76,4.38,2.54-.21.37-7.78-2.64-8-2.22-.85,1.48,6.69,2.17,6,3.45-.45.77-14.29-1.61-14.71-.88-1,1.77,23.45,11.86,22.72,13.14-1,1.69-38-18-39.29-15.86-1.37,2.38,34.13,16.93,32.91,19-1.6,2.78-45.41-22.31-46.78-19.92-2.12,3.68,47,22.18,44.86,26-.95,1.64-51.29-26.6-53-23.66-1.8,3.13,61.26,31.17,59.41,34.37-2.24,3.88-72.92-46.17-74.9-42.75-1.46,2.53,72.17,37.24,70.22,40.63-2.22,3.86-61.77-36.09-62.93-34.09-2.41,4.19,60.21,30.49,58.33,33.75-2.31,4-74.65-43.39-76.53-40.11-3.2,5.55,90,45.15,87,50.34-1.35,2.35-69.5-46.18-72.25-41.41-1.91,3.32,78.2,39.8,75.85,43.88s-88-58.06-91.2-52.53c-3.08,5.35,84.28,41.66,81.21,47-3.51,6.08-88.44-52.66-90.85-48.48-3.78,6.56,89.24,46.71,87.11,50.4-3.45,6-96.13-53.36-98.1-49.93-4.23,7.34,102.88,52.72,99.94,57.82-3.13,5.44-89.74-57.36-92.36-52.82-3.45,6,98.84,51.55,96.41,55.78-2.56,4.45-110.59-70-114.52-63.19-2.13,3.69,113.11,59.9,110.72,64.06-2.89,5-93.32-59.78-96-55.15-3.39,5.88,106.32,56,103.95,60.14-2.66,4.62-122.16-71.69-125.07-66.64C118.49,301.07,252,364.13,249.23,369c-3.47,6-129.39-78.81-134-70.79s125.41,60.59,120.24,69.57c-4.86,8.43-133.62-83.65-137.91-76.22-5.9,10.24,152.43,79.65,148.74,86.06-3.85,6.68-159.46-93.06-162.36-88-6,10.45,158.38,83.59,154.91,89.62C234.75,386.27,88.6,287.52,84,295.51c-3,5.13,151,79.17,147.49,85.33-6.82,11.83-167.23-103.91-172.94-94-4.18,7.26,156.89,77.54,151.17,87.46-6.24,10.83-155.65-99-161.65-88.54-4.45,7.72,171.41,84.64,165.13,95.54-6,10.47-158-105.37-164.24-94.53-6.77,11.75,168,86,163.18,94.41-5.81,10.09-159.42-101-164.55-92.11-5.57,9.67,160.13,83,155.95,90.23-3.37,5.86-169.36-105.23-175.42-94.72-4.58,7.95,170.44,83.77,164,94.9-3.6,6.24-173.19-107.64-179-97.53C6,294.25,200,382.26,196.6,388.13,191,397.89,21.12,278.94,17.45,285.31c-4.1,7.11,173.25,89.19,168.48,97.48C179.17,394.52,15.34,272.51,9.54,282.58s186.08,91.5,179.1,103.62C184.23,393.85,12,276.19,6.53,285.61,3.28,291.25,177.9,369,171.08,380.81c-5.79,10.05-148.82-93-154.15-83.71s166.22,80.66,159.52,92.29c-4,7-155.28-90.32-158.47-84.79-3.05,5.3,153.81,73.83,147.26,85.2-3.33,5.79-144.79-84.68-148.38-78.45-3.09,5.36,139.22,69.53,134.46,77.79-3.61,6.27-133-74.63-135.41-70.49-4.58,7.94,135.35,65.82,130,75.19C141.2,402,32.65,321.36,29.42,327c-3.6,6.24,129.93,66.4,126.14,73-3.63,6.29-137.34-78.41-140.17-73.51-2.42,4.19,135.22,66.61,130.2,75.33-4.42,7.66-115.37-73-119.5-65.83-4,7,110.56,54,106.24,61.47C129.95,401.53,29.37,331.88,25.87,338c-4.28,7.43,114.84,58.56,111.43,64.47-2.1,3.65-106.21-64.93-110.14-58.1-4.55,7.9,107.49,53.89,103.9,60.11-2.4,4.16-94.95-53-96.88-49.66s94,45.52,90.18,52.18c-2.16,3.75-90.89-54.84-92.92-51.33s89.7,44,86.27,49.92c-2.24,3.88-82.37-46.67-85.32-41.56-3.52,6.11,73.2,36.7,70.76,40.94-1.83,3.18-52.45-28.29-53.86-25.85-2.62,4.55,67.63,34.93,65.82,38.08-2,3.53-71.35-43.69-72.84-41.11s62.41,29.1,59.38,34.36c-1.2,2.09-50.25-28.71-52-25.59s55.18,25.49,52.4,30.32c-1.2,2.08-40.9-19.89-42.34-17.4-2,3.4,32.74,16,31.45,18.19-1.05,1.82-34.6-15.12-35.76-13.1-1.49,2.58,42.81,22.11,41.66,24.1-.62,1.07-26.79-14.15-27.63-12.71-1.11,1.93,14.57,6,13.52,7.82-.31.54-15.28-7.83-15.77-7-1,1.73,12.71,5.43,11.87,6.87-.07.13-3.33-.84-3.39-.73-.87,1.52,10.16,4.25,9.46,5.47-.1.17-5.74-1.2-5.95-.85-.46.8,1.79-.25,1.23.71-.16.28-6.43-2.58-6.56-2.36-.35.6,14.47,7.68,14.17,8.2-.4.69-11.15-6.22-11.52-5.58-.17.29,10.88,5.67,10.61,6.14-.1.18-5.69-1.75-5.86-1.45,0,.08,4.27,2.38,4.23,2.45" fill="none" stroke="#999" stroke-linecap="round" stroke-linejoin="round" stroke-width="1.36"/><path d="M54.81,106.86s3.6,2.05,3.59,2.07c-.16.28-5,1.76-5.19,2.07s4,1.84,3.77,2.18l-3.21,5.58c-.82,1.42,16.83,7.73,16,9.24-.49.85-15.16-5.6-15.5-5-.91,1.59,28.61,14.42,27.69,16S56.75,127.95,56,129.25c-6,10.44,189.25,91.12,181.31,104.9-5.17,9-178-113.84-184-103.4-5.75,10,196.52,100.09,190.64,110.3C238.3,250.84,57.25,121.58,52.06,130.6c-8.13,14.11,187.81,96.51,182.56,105.62-6.6,11.45-172.51-109.12-177-101.4C50.47,147.3,250.9,233.53,245.25,243.35c-6.57,11.4-182.8-114.41-187.51-106.23C49.47,151.48,242.81,225,234.53,239.41,228.62,249.66,55.27,127.06,48.89,138.13c-6.23,10.81,198,105,193.83,112.14-7.63,13.25-188.54-119-194.46-108.71-4.79,8.31,206.54,100.33,198.26,114.7C239.46,268.51,52.15,134.41,48.06,141.51c-6.55,11.37,208.45,102.24,200.52,116C244.94,263.85,45.9,128.64,39.44,139.86,32,152.78,253.29,251.27,248,260.5c-4.59,8-206.23-130.83-211.89-121-4.2,7.3,211.58,102.52,203,117.44C232.26,268.76,35.44,136.13,31.22,143.46,25.57,153.26,240,249.58,233.62,260.57c-6.72,11.66-185.79-114.13-190.47-106-4.4,7.64,208.49,104.21,201.4,116.52C240.44,278.22,32.8,141.81,27.09,151.73,20.35,163.42,241,258.84,233.78,271.31c-4.55,7.9-186.7-117.86-192.26-108.22C34.94,174.52,253.24,273.43,248,282.54,240.93,294.79,40.36,156.31,36,163.8c-3.94,6.84,214.53,114.67,210.45,121.76-7.93,13.77-210-134.58-218.55-119.7-5.62,9.75,215.91,111.65,210.18,121.6-8,13.88-200.26-132.76-208.26-118.88-7.8,13.54,217,111.26,210.84,122-4.18,7.25-209.93-129.79-214-122.65-8,13.88,217.78,114.11,212.64,123-6.3,10.93-207.76-129.47-214-118.62C21.5,178.88,229.9,272.58,222.07,286.18c-5.81,10.09-188-114.26-192-107.24-6.5,11.28,187.35,99.59,183.55,106.19C208,294.89,25,164.57,19.48,174.07,15.71,180.61,212.92,274,207.76,283c-4.23,7.34-180.33-108.22-184.58-100.83-6.61,11.46,190,100.51,185.9,107.56-5.68,9.86-188.18-116.67-193.72-107C9.42,193,207.87,282.71,203,291.23c-3.76,6.53-168.29-106.85-173.23-98.28C24.52,202,196,277.2,190.86,286.16c-6.14,10.65-161.79-103.65-167.7-93.37-3.76,6.53,159.82,77,153.13,88.59-4.17,7.24-150.89-92.12-155.64-83.86C17.6,202.79,174.74,276,170.13,284c-4.25,7.38-147.65-87.3-151-81.42-5.31,9.22,144.9,74.5,140.86,81.5-4.58,7.94-135.64-83-138.56-78-4.51,7.83,142.21,71,137.34,79.46-4.36,7.56-128.26-80.87-131.4-75.42-3.24,5.62,135.29,69.37,131.44,76-3,5.13-141.29-82.55-144.77-76.52-3.83,6.65,139.15,74.34,136.49,79-4.7,8.16-128.52-79.73-133-71.93-2.5,4.34,122.91,62,119,68.82-4.59,8-111.73-69-114.51-64.23-2.61,4.54,107.12,56.29,104.67,60.56-4,6.91-104.21-65-108.19-58.11-4.34,7.53,104.09,49.74,99.56,57.6-2.49,4.33-96.1-57.48-98.93-52.57-3.94,6.84,97,49.73,94.23,54.52C110,289,25,224.6,21.46,230.73c-3.22,5.59,92.54,46.78,89.62,51.85-2.61,4.53-85.45-53.51-88.65-48-2.17,3.77,90.17,47.29,88.06,51-3.35,5.81-94.4-56.2-96.35-52.8-2.61,4.52,81.92,41,79.17,45.81-2.42,4.21-71.91-41.09-74.6-36.43-1.82,3.16,68.94,34.29,66.52,38.49-1.59,2.76-65.62-38.17-67.76-34.46-2,3.52,56.51,28.43,54.67,31.63-2.3,4-62.82-35.65-64.72-32.35C6.14,247.66,69.53,277.9,68,280.51c-1.93,3.36-59.06-34-60.6-31.31C5.4,252.73,53,271,51,274.42c-.69,1.2-33.09-18.63-34.27-16.59C15,260.8,47.88,273,46.65,275.14c-.84,1.46-34.29-19.6-35.53-17.44-1.39,2.42,22.51,10.76,21.53,12.46-.58,1-20.6-11.68-21-11.05-.9,1.55,18,8.57,17.19,9.95-.36.63-14.66-1.36-15-.84-.5.87,11,5.41,10.56,6.11-.63,1.09-16.31-9.37-16.86-8.41s7,2.86,6.45,3.73c-.2.34-6.49-1.88-6.61-1.67-.45.79,5.18,2.24,4.86,2.81-.14.24-7,1-7.14,1.27,0,.05,3.79,2.15,3.78,2.18" fill="none" stroke="#999" stroke-linecap="round" stroke-linejoin="round" stroke-width="1.36"/><path d="M247.38,197.16s3.52,2,3.51,2c-.15.26-8.81-2.44-9.13-1.87-.15.27,9.32,5,9.14,5.29s-11.93-.89-12.31-.23c-.59,1,3.94,1.3,3.52,2-.19.34-7.2-2.26-7.42-1.88-.83,1.44,6.07,1.86,5.36,3.1-.47.82-15.12-2.15-15.57-1.37-1,1.81,24.32,12.32,23.56,13.63-1.08,1.87-41.84-20.51-43.21-18.13-1.48,2.57,38.14,19,36.83,21.31-2,3.47-56-29.22-57.71-26.24-2.49,4.32,58.33,27.85,55.78,32.27-1.51,2.62-80.12-45.6-82.81-40.93-2.51,4.35,91.82,47.17,89.25,51.64-3.25,5.64-105.88-67.31-108.75-62.33-2.1,3.64,106.87,55.35,104.07,60.21-3.43,5.95-93.78-58.12-95.56-55-3.38,5.86,93.58,48.07,91,52.62" fill="none" stroke="#999" stroke-linecap="round" stroke-linejoin="round" stroke-width="1.36"/><path d="M247,8.1s3.63,2.06,3.62,2.09c-.15.26-8.74-2.39-9.06-1.83-.15.27,9.24,4.94,9.07,5.25s-10.91-.23-11.26.37c-.55,1,2.86.73,2.46,1.43-.15.25-5.49-1.14-5.66-.86-.77,1.33,4.25.93,3.59,2.08-.29.51-9.15,1.7-9.43,2.18-.88,1.52,18.05,9,17.42,10.08-.75,1.31-29.93-12.67-30.9-11-1.14,2,25.52,12.43,24.51,14.18-1.15,2-33.36-14.44-34.35-12.73-1.7,3,34.16,15.73,32.41,18.75-.63,1.09-34.68-15.67-35.8-13.72-1.4,2.42,43.66,21.95,42.23,24.43-1.71,3-55.81-35.19-57.31-32.58-1.13,2,54.14,27.84,52.64,30.45s-43-24.39-43.77-23c-1.85,3.21,40.61,20.17,39.17,22.66C235,49.16,183.57,16.73,182.24,19c-2.41,4.18,67.11,33.61,64.85,37.52-.93,1.62-47.88-31.69-49.77-28.4C195.89,30.66,252.47,56,250.7,59s-66.13-43.56-68.52-39.41S243,49.49,240.71,53.49c-2.47,4.29-62.89-36.24-64.59-33.29C173.35,25,238.54,52.69,237,55.41c-2.29,4-64.54-33.54-65.85-31.27-3,5.23,69.77,35.52,67.68,39.16s-57.87-36.76-59.55-33.84c-2.45,4.26,65.34,33.79,63.61,36.8s-76.32-47.33-79-42.65c-1.5,2.6,76.9,40.59,75.21,43.52-1.81,3.14-58.46-37.3-60.12-34.4-2.38,4.13,69.75,36.5,68.09,39.39-1.76,3.05-81.48-45.86-83.41-42.53-2.29,4,87.64,46.29,85.73,49.6C247.15,83,167,31.57,164.09,36.62,161,42,239,72,235.55,78c-3,5.18-82.6-50.31-85.23-45.75-3.87,6.72,98.49,51.37,96.06,55.58S145,30.84,143.22,34c-4,7,104.81,55.25,102.48,59.29-2.49,4.32-92.38-54-95.19-49.14-2,3.54,99.85,52.1,97.4,56.35-4.51,7.83-111.46-67.16-115.24-60.6C129.73,45,239,92.09,235,99.09s-102.5-63.4-106.43-56.58c-3.19,5.53,121.46,59.87,117,67.67-4.24,7.35-111-73.9-115.43-66.29-4.85,8.42,118.55,60.53,115.07,66.57-4,6.87-108.89-68-112.39-61.93-4,7,111.07,57.27,108.05,62.52-2.25,3.91-114-68.53-118-61.51-3.33,5.79,120.16,58.72,115.49,66.82-2.43,4.22-117.77-71.2-121.71-64.37-5.18,9,136.48,73.24,134,77.53-4,7-125.82-78.05-128.45-73.49-3,5.2,122.29,62.67,118.8,68.73C236.13,133.08,119.71,47,115.59,54.09,111.32,61.5,251,120.53,245.86,129.46c-3.32,5.77-133.72-82.06-137.81-75-2.55,4.43,131.4,63.65,126.05,72.93-4.51,7.83-116.45-71.51-120.61-64.3C109,71,251.76,130.05,246.11,139.86c-3.48,6-134.81-77.49-137.57-72.7s140.27,67.21,134.25,77.67c-3.2,5.55-138.94-80.95-142.38-75-3.14,5.45,141.72,70.8,136.88,79.19C233.4,155.8,94.44,68.31,91.87,72.77c-5.17,9,154.57,75.31,148.47,85.9-5.43,9.43-131.66-84.39-135.42-77.85-4.09,7.1,150,76.78,145.64,84.27S87,70.22,83.63,76.08c-3.06,5.31,171.42,84.46,165.06,95.5C242.84,181.73,96.26,74,90.79,83.54c-5.38,9.35,153.8,75.66,148,85.65-3.37,5.85-145.57-93.58-150.54-85C82.39,94.47,250.72,167.35,246,175.49,242.9,180.91,89.43,77,83.59,87.14,76.73,99,251,171.48,245.57,180.85c-4,7-158.73-93-162-87.34C80.21,99.37,251.65,175.84,245.21,187,241.3,193.82,81.63,86.35,78,92.7c-3.39,5.88,167.34,83,161.37,93.36-4.53,7.86-163.66-100.7-169.63-90.34-6.64,11.52,153.92,78.42,149.33,86.4-4.87,8.45-135.86-81.92-139.59-75.45-5.28,9.16,150.24,78.47,146.58,84.81C221.69,199,74.14,97.28,71,102.79s146.81,70.63,140.63,81.36c-3.24,5.62-132.21-83.14-137-74.76-4,7,138.33,66.22,132.36,76.58-3.5,6.08-114.59-68.9-118.78-61.63-4.28,7.43,100.87,51.82,98,56.73-2.92,5.06-91.38-52.75-94.6-47.15-3.09,5.36,87.23,45,84.85,49.09-1.5,2.6-63.25-38-65.27-34.49s42.64,20.17,40.7,23.55c-.73,1.27-34.92-20.73-36.07-18.73-1.35,2.34,22.33,10.32,21.21,12.27-.07.13-3.17-1.15-3.23-1-.6,1,2.61.39,2.13,1.23" fill="none" stroke="#999" stroke-linecap="round" stroke-linejoin="round" stroke-width="1.36"/><path d="M383.71,415.39c-.37.64,11.93,5.88,11.48,6.64-.58,1-31.49-17.72-32.75-15.54-1.63,2.82,55.7,27.91,53.84,31.15-1.46,2.54-68.23-38.21-70.66-34-2.78,4.82,59.57,29.81,57.56,33.3s-69.47-43.26-71.84-39.15c-3.33,5.78,77,37.89,74.11,42.88-3,5.15-85.28-48.25-88.11-43.34s92.78,48.85,90.69,52.47c-2.82,4.89-105.53-62.52-109.14-56.27-3.16,5.48,100.55,51.7,97.75,56.56-4,6.88-108.5-63.49-111.9-57.59-4.12,7.15,108.56,53,104.34,60.37-2,3.52-106.9-63.25-110.52-57-3,5.26,114.56,59.09,111.46,64.48-3.79,6.58-123.41-78.56-126.75-72.75-2.43,4.21,124.86,64.73,121.61,70.36-4,6.89-109.57-65.84-111.63-62.27-3.8,6.59,108.16,55.75,105.21,60.87C374.94,462.7,265.84,389,263,394c-4.47,7.76,126.81,63.7,122.64,71-2,3.49-103-68.67-107.13-61.59-2.64,4.59,113.64,58.23,110.39,63.87S268,387.35,263.58,394.94c-4.23,7.34,119.31,59.29,115.1,66.59-4.52,7.85-113.61-68.84-116.71-63.45-4.63,8,112,58.78,109.42,63.3-3.77,6.55-104.81-58.8-107-55.06-4.34,7.53,105.85,54.27,102.84,59.5-3.19,5.54-91.38-58.42-94-53.79-3.48,6,100,52.18,97.56,56.44S264.91,401.6,261.15,408.13c-2,3.46,105.38,55.78,103.14,59.67-2.63,4.57-85.2-54.54-87.63-50.32-3.14,5.45,97.46,51.3,95.26,55.11s-102.33-59.1-104.76-54.88c-2.7,4.69,104.32,55.14,102.07,59.05-2.44,4.23-91.73-53.84-95-48.2s78.21,37,74.66,43.19c-3,5.16-82.32-50.13-84.94-45.58-3.73,6.47,94.65,49.36,92.32,53.41-2.2,3.81-92-51.16-93.65-48.29-3.46,6,89.26,47,87.27,50.49s-72.56-41.11-74.75-37.31c-1.56,2.7,72.87,37.83,71,41.08-3.24,5.62-80.77-47-83.49-42.24-2,3.44,66.71,32.32,64,37-2.41,4.19-61.41-35.91-63.73-31.88-1.92,3.34,71.59,35.14,68.88,39.85-2.45,4.26-64.37-42.63-66.91-38.22-2.9,5,68.09,34.58,66,38.19s-58.75-35.22-60.61-32C268,460.2,324.89,484,323.21,486.93c-1.07,1.86-55.56-29.83-57.49-26.49-1.58,2.74,49.3,23.41,47.09,27.25-.94,1.63-47-24.66-48.5-22-2.08,3.61,54.46,29.21,53.47,30.94-1.48,2.56-46.29-28.18-47.26-26.51-1.18,2,38,18.79,36.59,21.17-1.57,2.73-40.31-24.61-41.66-22.26-1.59,2.76,46.29,22.35,44.37,25.67-1.13,2-46.73-25.49-48.12-23.07-.82,1.42,32.3,14.71,30.59,17.7-.73,1.27-20.37-7.85-21-6.69-1.18,2,27,12.22,25.53,14.77-.6,1-25.07-8.71-25.55-7.88s13.88,5.41,12.74,7.37c-.28.48-13.71-1.23-14-.71s3.17.58,2.63,1.52c-.27.47-11.24.93-11.42,1.24s8.13,4.26,7.94,4.59c-.31.54-7.72-4.47-7.94-4.1-.11.19,7.27,3.95,7.16,4.14s-6-1.43-6.11-1.24c0,0,.1,0,.08,0" fill="none" stroke="#999" stroke-linecap="round" stroke-linejoin="round" stroke-width="1.36"/><path d="M419.68,427.22c-.62,1.07,1.09-.1.77.45-.09.16,1.85,2.38,1.75,2.55s6.14,3.42,6.08,3.52" fill="none" stroke="#999" stroke-linecap="round" stroke-linejoin="round" stroke-width="1.36"/><path d="M502.23,275.47s3.4,1.94,3.39,2c-.12.21-7.38-1.48-7.64-1-.11.19,7.38,4,7.25,4.2-.3.52-15.37-3.15-15.87-2.29-.39.68,15.36,8.23,15.08,8.72s-9-3.44-9.28-3c-.54.94.65-.7.18.11-.2.35-4.09,4.82-4.28,5.16-.65,1.13,9.78,4.57,9.31,5.38s-21.49-7.12-22.16-6c-.87,1.51,15.47,7.16,14.7,8.5S468.68,288.81,468,290c-1.34,2.32,22.9,10.08,21.53,12.46-.44.77-25.07-9.34-25.86-8-1.13,2,32,15.85,30.87,17.86-1.37,2.38-44.83-28.15-46-26.05-.91,1.59,42.46,21.74,41.24,23.86S457.64,292.57,457,293.6c-1.51,2.62,28.79,13.94,27.62,16-1.29,2.25-42.54-22.89-43.6-21.05-2,3.47,55.09,27.55,53.22,30.79-.72,1.24-36.81-24.27-38.26-21.75-1.19,2.07,43.25,21.63,41.79,24.18s-55-36.2-57-32.75,48.89,23.86,47,27.18c-2.07,3.6-52.93-29.84-54.35-27.37-2.34,4.07,50.79,26.33,49.47,28.62-2,3.39-55.56-27.9-56.67-26-2.6,4.51,58.39,29.6,56.59,32.74-1.65,2.86-47.29-29.92-48.66-27.54-2.12,3.67,54,27.8,52.54,30.4s-66.6-40.89-68.95-36.82c-1.3,2.26,65.75,34.64,64.28,37.19s-47.95-30.52-49.32-28.15c-2.07,3.6,58.62,30.56,57.17,33.08-1.58,2.74-73.41-40.74-75.14-37.74-2,3.54,77.55,40.93,75.85,43.88-2,3.49-76.18-43.53-78.86-38.88-2.83,4.92,66.18,31,63,36.47-2.75,4.77-76.24-46.15-78.66-41.94-3.57,6.2,90.45,47.16,88.22,51s-96.63-54-98.37-51c-3.77,6.55,97.78,51.53,95.6,55.31-2.4,4.17-89.25-52-92-47.27-1.94,3.37,94.39,49.21,92.06,53.26-4.44,7.71-109.9-66.14-113.63-59.67-2.85,5,102.43,50.23,98.53,57-4.07,7.06-102.24-63.22-106.15-56.43-3.13,5.43,119.13,58.71,114.72,66.37C471,370,365.9,290.07,361.59,297.56c-4.77,8.28,116.38,59.42,113,65.36-4,6.87-109-68.07-112.51-62-4,6.92,109.84,56.62,106.85,61.82-2.34,4.05-118-71.21-122.21-63.94-3.37,5.84,121.5,59.38,116.78,67.57-2.55,4.43-123.72-75.11-127.86-67.93-5.31,9.22,140.11,75.19,137.57,79.59-4.16,7.23-130-80.65-132.69-75.94-3.08,5.35,126.27,64.74,122.68,71-5,8.68-126.39-81.21-130.68-73.77-4.41,7.66,140.15,68.79,134.84,78C463.79,383.45,325.45,290,321.1,297.5c-2.67,4.63,137.94,66.88,132.35,76.58-4.94,8.57-127.21-78.64-131.76-70.75-4.79,8.31,147,71.21,141,81.59C458.86,391.64,313,298.09,310,303.43s152.5,73.19,146,84.47c-3.63,6.31-157.52-92.78-161.43-86-3.45,6,157.55,78.85,152.24,88.08-4.52,7.85-165.69-94.93-168.68-89.74-5.79,10,174.43,85.12,167.6,97C439.47,408,294.92,300.5,290.61,308c-4.59,8,169.85,87.09,165,95.48-5,8.75-189.87-111.36-193.8-104.54-3.48,6,194.82,96,187.6,108.54-6.61,11.48-172.12-110.58-178.3-99.85-6,10.38,173,85.27,166.56,96.37C433.93,410.49,275.55,299.48,270,309.1c-6.45,11.2,178.79,91.55,173.65,100.47-3.36,5.83-168.45-106.39-174.74-95.48-7.22,12.53,176.77,89.11,171.08,99-4.18,7.26-163.92-96.25-167.29-90.4S442.26,405.73,435.76,417c-3.91,6.79-163.61-100.7-167.27-94.34-3.39,5.89,167.43,83.06,161.46,93.42-4.41,7.66-159.43-97.89-165.24-87.8-6.8,11.8,158,80.53,153.31,88.7-4.9,8.51-136.77-82.51-140.53-76-5.52,9.59,157.92,82.51,154.1,89.16-4.54,7.88-158.68-98.45-162-92.69s155.35,74.83,148.85,86.12c-3.44,6-140.21-88.46-145.33-79.57-2.93,5.09,96.32,45.64,92,53.2-2.61,4.53-86-49.86-89.09-44.46-2.71,4.7,54.79,27.56,53,30.66-2,3.51-64.28-34.79-66.52-30.9-2.05,3.56,58.5,30.18,56.92,32.93-1.1,1.91-46.8-27.23-48.28-24.66-1.66,2.88,30.9,14.24,29.33,17-.71,1.24-34-20.11-35.1-18.17-1.61,2.79,29.49,14,28.15,16.29-.53.91-21.24-12.12-21.7-11.32-1.49,2.58,27.18,13,26,15-.38.66-20.65-11.19-21.44-9.82-1,1.73,7.3,1.46,6.1,3.53-.31.54-11.81-6-12.05-5.54-1,1.7,20.52,9.91,19.68,11.38-.52.9-14.38-8.34-14.85-7.51-.65,1.13,12.22,4.67,11.18,6.47-.38.66-19.44-9.94-20.05-8.87-.83,1.44,7.85,2.75,7.08,4.1-.16.29-4.47-1.7-4.58-1.5-.52.9,16.52,8.59,16.1,9.32-.85,1.47-23.46-8-23.83-7.31-.21.36,13.72,7.05,13.34,7.72s-13-6.54-13.33-6c-.21.37,10.76,5.69,10.53,6.09s-10-5.77-10.25-5.35,9.36,5.08,9.21,5.33c-.26.46-9.16-2.13-9.48-1.58,0,0,3.57,2,3.55,2.05" fill="none" stroke="#999" stroke-linecap="round" stroke-linejoin="round" stroke-width="1.36"/><path d="M444.31,97.72s3.77,2.14,3.75,2.17-5.37-.14-5.56.19,11,5.86,10.81,6.25c-.12.22-5.44,3.27-5.64,3.63-.68,1.18,7,2.9,6.5,3.76-.19.32-6.93-2.08-7.14-1.71-.92,1.59,8.56,3.12,7.77,4.5-.24.41-6.79,3.18-7,3.58-1,1.79,23.74,12,23,13.3s-30-12.7-30.94-11c-1.3,2.25,31.34,15.47,30.19,17.47s-34.27-15-35.29-13.27c-1.9,3.3,40.38,18.85,38.43,22.23-.66,1.15-36.43-16.82-37.61-14.77-1.54,2.67,49.79,25.16,48.21,27.89-1.88,3.26-61.29-38.71-62.95-35.83-1.24,2.15,60.28,31,58.62,33.91S432,132.8,431.08,134.33c-2,3.52,46.72,23.38,45.14,26.12-1.74,3-56.62-31.88-58-29.41-2.61,4.53,72.84,36.5,70.4,40.73-1,1.79-53.06-35.16-55.15-31.52-1.56,2.7,60.83,30.77,58.92,34.09s-71.39-47-74-42.57,66.58,32.76,64.09,37.08c-2.63,4.56-66.69-38.68-68.5-35.55-3,5.19,68.16,35.54,66.47,38.46-2.39,4.15-67.35-35.3-68.71-32.93-3.23,5.61,75.66,38.58,73.42,42.48s-63.21-40.21-65-37c-2.63,4.56,71.21,36.91,69.36,40.13s-80.68-50.21-83.53-45.25c-1.59,2.77,82.42,43.53,80.63,46.65-2,3.41-63.57-40.6-65.39-37.45-2.53,4.39,75.22,39.43,73.45,42.5s-84.88-48-86.89-44.54c-2.42,4.2,92.8,49,90.79,52.53-2.27,3.94-85.64-49.8-88.66-44.55-3.27,5.68,80.37,38.1,76.74,44.4-3.14,5.45-87-53.15-89.73-48.34C392.8,157.43,500.8,204.58,498.25,209S393,149.6,391.08,152.89c-4.22,7.32,109.83,57.91,107.4,62.14-2.6,4.51-96.43-56.64-99.36-51.55-2.13,3.7,105,54.85,102.48,59.29-4.69,8.13-115.76-70-119.69-63.18-3.08,5.35,111.89,55,107.68,62.3S382.18,155.2,378.06,162.35c-3.33,5.77,127,62.63,122.33,70.78-4.43,7.69-116.18-77.34-120.77-69.38-5.07,8.79,124.06,63.37,120.43,69.67-4.14,7.19-113.92-71.28-117.58-64.93-4.2,7.28,116.53,60.13,113.38,65.6-2.36,4.11-119.51-72.2-123.75-64.83-3.49,6.06,126.42,61.83,121.53,70.31-2.56,4.45-124.07-75.34-128.22-68.14-5.44,9.44,143.39,77,140.8,81.46-4.25,7.37-132.54-82.27-135.31-77.45-3.15,5.46,129.31,66.33,125.64,72.69-5.07,8.79-128.06-82.31-132.4-74.76-4.49,7.79,142.67,70,137.27,79.42-3.51,6.09-141.1-86.86-145.42-79.36-2.69,4.67,139.09,67.44,133.46,77.22-4.83,8.39-124.53-76.87-129-69.14-4.78,8.29,146.61,71,140.65,81.37-3.73,6.48-144.48-83.55-147.44-78.41S500.74,255,494.45,265.92c-3.4,5.89-147.44-86.36-151.09-80-3.13,5.43,141.14,70.5,136.32,78.87-3.95,6.85-145.07-82.12-147.67-77.59-4.92,8.55,146.59,71.37,140.78,81.45-5.13,8.91-124.38-79.69-127.94-73.52-3.89,6.74,141.61,72.45,137.51,79.56-4.21,7.32-159.18-92.11-162.47-86.41-2.8,4.85,156.55,77.13,150.74,87.21-5.38,9.33-140.16-89.41-145.18-80.69-4.84,8.4,136.2,66.83,131,75.81-3,5.23-130.27-83.51-134.71-75.79C316.52,203.91,465,268,460.82,275.26c-2.82,4.89-141.7-88.57-147-79.42-5.94,10.31,143.57,72.23,138.89,80.36-3.57,6.2-140.27-81.42-143.14-76.43s139.54,68.15,134.1,77.59c-3.31,5.74-138.43-84.82-141.52-79.45-2.86,5,139,68.77,134,77.51-4,6.86-143.15-87.07-148.36-78-5.89,10.23,134.62,68.44,130.54,75.53-4.37,7.58-122.09-73.06-125.43-67.26-4.89,8.49,138.29,72.17,134.9,78-4,7-141.33-87.58-144.28-82.45s136.13,65.37,130.34,75.41c-3.16,5.49-129.19-81.14-133.91-73-4,7,138.1,66.1,132.14,76.45-4,7-131.67-80.26-136.5-71.88-5.1,8.86,124.95,64.49,121.58,70.34C392.95,285.91,266.7,200,262.05,208c-5,8.66,140.17,72.19,136.32,78.87-3,5.13-123.69-77.53-127.68-70.6-4.52,7.84,115.75,57.09,111.49,64.5-2.43,4.21-113.46-72.31-117.26-65.7-4.75,8.25,116,57.92,112,64.8-2.61,4.53-103.27-63.78-105.55-59.83-4.64,8.06,114.52,57.65,110.8,64.11-2,3.4-102.17-66-106.25-58.89-3.51,6.1,96.92,46.34,92.71,53.64C366,283.52,272,219.73,270,223.28c-3.69,6.4,110.13,56.33,106.94,61.87-3.65,6.33-98.75-63.85-102.12-58-2.59,4.5,103.06,50.09,98.94,57.25-2.13,3.69-104.34-65.68-107.82-59.65-3.89,6.75,99.72,49.31,96.1,55.6s-91-57.47-93.6-53S376.17,284.77,374,288.47c-4,6.88-101.69-56.39-103.43-53.36-2,3.52,87.93,42.18,84.17,48.7-2.19,3.81-88.18-54.44-90.4-50.58-2.78,4.82,91.45,45.9,88.42,51.16-2.47,4.29-89.62-56.43-91.85-52.56-3.2,5.56,102.56,54.36,100.41,58.09-2.63,4.57-81.33-50.12-84.47-44.66-2.5,4.35,65.83,32.11,63.25,36.59-1.67,2.89-62.92-35.11-65.08-31.36-3.22,5.59,70,34.56,67.42,39-2.11,3.67-63.65-39.35-65.26-36.56-2.44,4.23,53,26.51,51.23,29.64-2.08,3.62-63.25-38-64.8-35.36-1.36,2.36,67,34.3,65.05,37.64-2.27,3.95-58.61-29.75-60.17-27-2.35,4.09,59.12,31.55,58,33.54s-56.07-28.82-57.88-25.67c-1.18,2,42.87,20.2,40.88,23.65-1.18,2-34.4-20.3-35.42-18.54-1.21,2.1,29.31,14.53,28.26,16.35-.55,1-23.38-14-24.23-12.56-1,1.66,25.87,11.06,24.18,14-1.15,2-36.26-19.54-37.22-17.87-.81,1.41,30.73,14.27,29.22,16.9-.6,1-26.08-8.78-26.5-8-.94,1.63,16.23,7.12,15.25,8.82-.6,1-18.72-11.52-19.29-10.54-1,1.75,16.53,8.18,15.93,9.22-.37.65-14.59-8.27-15.13-7.34-.75,1.3,10.15,4.07,9.37,5.42-.45.78-11.87-5.07-12.23-4.44s14.88,7.5,14.4,8.33c-.29.5-14.79-3.44-15.25-2.65-.14.24,11,5.74,10.73,6.21s-10.39-2.61-10.71-2.06c0,0,3.63,2.07,3.62,2.09" fill="none" stroke="#999" stroke-linecap="round" stroke-linejoin="round" stroke-width="1.36"/><path d="M368.7,34.63c-.47.82,17.05,8.56,16.49,9.54s-33.09-18.8-34.41-16.5c-1.68,2.92,58.09,29.14,56.16,32.49-1.5,2.61-70-39.38-72.5-35.06-3.62,6.28,86.42,43.92,83.79,48.48-2.86,5-95.42-60.36-98.69-54.68C315,26.8,431.24,74.43,427.31,81.25,423.19,88.4,310,11.94,306.09,18.75s133.53,70.6,130.66,75.59c-3.87,6.72-144-87.89-148.94-79.3-4.29,7.45,142.78,73.8,139,80.4-5.47,9.49-148.54-89.65-153.23-81.51C268,23.6,426.6,89.3,420.9,99.2c-2.67,4.63-139.69-84.87-144.46-76.59-3.87,6.71,150.92,78.14,147,85C418.56,116,266.33,7.48,262.07,14.87,259,20.22,422.47,98.15,418.35,105.3c-5.15,8.95-141.91-86-144.58-81.33C269,32.26,416.06,97.69,412.34,104.14,407.8,112,267.21,15.75,263.5,22.19c-5.68,9.87,162.09,81.48,156.77,90.7-2.65,4.6-135.88-90.68-141.26-81.34C275.65,37.4,427.78,108,423.64,115.23S269.68,13.5,264.11,23.17c-5.39,9.35,154.76,77.13,149.4,86.44-5.87,10.19-147-90.29-151-83.29-6,10.37,148.15,77.93,144.79,83.77C402.24,118.85,267.84,29.55,265,34.56c-5.73,10,144,74.09,140,81-4.46,7.74-127.5-81.75-131.21-75.3-4.61,8,138.15,72.39,134.89,78s-141.9-90.72-147-82C259,41,405.9,112.84,402.9,118.06c-3.78,6.56-122.22-78.41-125.71-72.35C273,53,413.55,117.78,410.6,122.9c-3.05,5.3-139.58-82.74-142.91-77-3.7,6.42,144.47,76.45,141.39,81.8-3.48,6-129.67-79-134.3-70.95-4.53,7.86,121,58.38,116,67.1-4.44,7.71-122.34-76.28-126.26-69.48-5.36,9.3,138,72.11,134.69,77.93-3.22,5.58-133.61-77-136-72.81-5.13,8.9,134.35,70.87,131.39,76C391.42,141,279.2,66.6,275.68,72.71c-2.39,4.15,119.57,62.52,116.69,67.52-5.07,8.79-124.94-76-129.19-68.67-3.19,5.53,116.1,57.09,111.74,64.65S267.57,69.55,263.45,76.69c-3.22,5.59,122.86,60.56,118.31,68.45-4.27,7.41-111.92-74.49-116.34-66.82-4.87,8.46,119.11,60.82,115.61,66.89-3.88,6.73-106.78-66.62-110.21-60.67-3.88,6.73,106.49,54.87,103.58,59.93C372.33,148,270,82.26,266.27,88.68c-2.94,5.11,104.4,50.86,100.28,58-2,3.51-98.42-58.47-101.69-52.79-4.21,7.31,111,59.54,108.95,63-3.22,5.59-100.63-62.26-102.73-58.61-2.41,4.19,95.2,48.57,92.39,53.45-3.72,6.46-94.26-60.08-97.45-54.54-3.35,5.82,104.9,51.34,100.86,58.35C364.35,160,265.34,94.49,262.25,99.85c-1.88,3.26,92.81,44.59,88.88,51.42-2.94,5.1-76.62-45.11-79.33-40.41-3.09,5.37,90.62,43.5,86.76,50.2-2.17,3.76-85.06-46.3-86.78-43.31s81,38.25,77.31,44.73c-1.77,3.07-78.24-42.28-80.15-39-1.74,3,70.55,34.61,67.87,39.27-1.85,3.22-69.74-35.33-71-33.21-2.53,4.39,69.4,33.26,66.42,38.43-2.12,3.69-51.58-32.75-53.05-30.2-2,3.44,64.89,32.7,62.8,36.33s-77.65-41-79.22-38.25c-1.3,2.25,72.31,35.6,69.61,40.28-2.2,3.82-58.26-35.17-60.32-31.59s49.32,23.24,47,27.21c-1.06,1.85-46.59-28.44-48.16-25.72-2.25,3.9,54.91,27.63,53.12,30.73-1,1.76-52.32-29-54.21-25.74-2.31,4,49.34,24.33,47.51,27.49-1,1.82-42.88-20.38-43.73-18.91-1,1.69,38,17.69,36.17,20.92-.93,1.61-39.52-22.44-40.39-20.93s34.84,16.39,33.21,19.21c-.93,1.61-35.78-15.73-37-13.61-1.53,2.66,21.69,10.09,20.62,11.93-.24.42-7.66.45-7.85.77-1,1.81,18.62,9.1,17.89,10.35S271,173.48,270.52,174.39c-.61,1.06,13.14,4.87,12,6.92-.18.3-8.19-.82-8.45-.37-.65,1.13,8,2.37,7,4.05-.51.89-18.54-5.05-19.16-4-.49.86,17.41,9.32,17.08,9.88-.43.75-15.12-2.27-15.6-1.44-.09.16,4,2.15,3.93,2.28s-5.23-2.2-5.39-1.93c0,0,3.57,2,3.55,2.05" fill="none" stroke="#999" stroke-linecap="round" stroke-linejoin="round" stroke-width="1.36"/><path d="M249.47,388.47c-5-.74-10.55.48-17.09,2-11-2.39-23.66,0-32.46,5.76-10.36.65-23.84,2.2-32.94,6.46-10.48,4.27-19.63,6.67-27.52,11.89-11.19,5.12-21.23,5.87-26.6,14.55-10.47,2.56-17.4,4.56-23.49,12.95,40.08,39.28,98.16,59.68,157.57,59,2.93,4.15,5.07,4.27,2.55-.24,1.81,4.35.34-112.76-.17-114.26C250.85,386.88,250,389.11,249.47,388.47Z" fill="none" stroke="#666" stroke-width="3.4"/><path d="M8.47,282.61c4.21,55.35,31.1,114.5,75.16,152,5.23-4.23,15.57-7.91,25.55-17.32a65,65,0,0,0,24-9.73c13-3,21.43-7.66,32.73-11.7,8.31-2.15,21.66-5.33,31-11.83,14.09,2.92,22.76.76,35.23-5a95.23,95.23,0,0,0,17.06,3.74c3.14.28,1.63-83.82-3.14-85.39-28.59.31-56.23-3.42-89.53-.84-28.39-5.27-58.3-7-82.27-8.14C47.83,282.23,26,284,10.45,280c-5.15,0-4.26,1.68-4.3,1.86C6.42,280,5.63,277.56,8.47,282.61Z" fill="none" stroke="#666" stroke-width="3.4"/><path d="M8.69,275.58c-1.44-3.55-4.37,1.39,2.4-6.16,16,5.73,36.8,12.17,63.4,14.06,26.22,1.78,54.58,5.54,86.85,1.44,26.86,6.72,59.88,6.09,89.55,2.53-.37,1.76-2-86.85-1-87.11-2.22-4.69-.84-3-5.47-5.7-7.82,3.5-14.19,1.48-25.57,2.72-7.3.95-18.66,1-27.35-2.12-6.1-1.17-16.3-2.68-21.8-10.62-8.14.92-16.12,1.43-20.51-6.46-8.91-2.23-14.82-6.32-21.46-5.77-6.88-3.84-13-13.4-18.45-13.84-10.37-6.53-18.81-19.32-26.1-23.39-12.92-8-20.33-15.36-24.58-21.6.31-3.72-3.32-6.32-1.2-7.78C23.81,143.55,5.45,196.16,8.55,253.15c-3,7.35-2.83,12.23-1.16,18.15C3.89,272.94,7.77,275,8.69,275.58Z" fill="none" stroke="#666" stroke-width="3.4"/><path d="M63.94,103.91c-1.35-.54-2.16-4.68,1.41-3.62,3.54,12.35,10.11,21.24,22.11,26.11,7.22,11.44,13.81,15.8,25.77,28.95,3.8-1.61,10.68,8,16.36,6.36,8.6,8.4,13.27,5.8,20.17,13,7.55,2.9,14.9,3.56,22.12,8.69,5.84,1.4,16.49,4.41,21,.1,8.47,7.21,18.23,6.38,27.39,3.56,11,8.43,18.07,4.66,25,6.72,3.48,1.68,5.55-1,4.78-3.81.89,5.14-1.19-180.87-3.14-179.94,5.05,0,3.36.84-.45.11C171.25,7.27,105.81,41.75,61.21,103.65,62.25,101,60.56,102.93,63.94,103.91Z" fill="none" stroke="#666" stroke-width="3.4"/><path d="M420.62,437.82c-1.55-1.92-8.07-6.19-15-10.48-3.11-4.46-8.45-7.19-16-8.37-6.8-4.72-11.24-8.22-19.91-9.66-5.4-3.17-11.92-7.27-17.5-7.53-11.82-5.31-23.33-10.32-36.33-10.09-14.4-5.14-23.94-5.89-36-3.94-6.14-2.15-12.33-.51-16.17-.69-2.16.18-1.89,117.53.32,113.64,59.92.15,115.18-22.89,157.69-58.58C421.79,437.81,422.67,440.53,420.62,437.82Z" fill="none" stroke="#666" stroke-width="3.4"/><path d="M262.19,298.15c-.62,1.14,1.36,80.37-.8,83.82,5.46,2.33,9.27,1.15,19.21-3.8,13,3.48,21.88,1.56,35.91,4.9,13.44,5.57,25.17,8.15,39.63,10.93,3.16,4.5,10.26,3.7,16,4.42,6.16,4.42,12.87,10.19,21,12.49,5.47,6.47,14.37,8.77,20.26,12,3,6.58,9,10,14.15,7.24,42.63-36.4,72.35-91.34,75.76-156.31-12.09,6.2-22.6,5.76-37.23,8.72-13.39,4.67-31.66,8-51.92,10.24-14.49,1.65-28.67-.23-46,5.6-21-3.64-35.32-2.89-52.4-.65-16.13-2-35.33,2.88-50.13,3.21-2.55-4.27-3.32-.62-4-1.19C261.3,296.51,259.93,300.11,262.19,298.15Z" fill="none" stroke="#666" stroke-width="3.4"/><path d="M264.9,291.5c-.5-1.44.08,3.31,3.6-3,13.87.87,31.42,1.59,46.29,5.78,17.53-.59,35.32-4.17,51.52-6.84,18.28-.06,32.64-2.23,48.3-2.18,19.92-4.84,34-5.19,50.9-7.49,13.63.41,25.06-3.45,39.32-9.53,2.86-7,2.9-8.8,1.33-16.36-1.25-58.64-21.87-112.16-61.7-150.1-.87,4-5.5,9.14-11.29,15.2-3.7,5.67-8.19,6.46-16.44,15.53-2.57,1.06-9.52,10.4-13.16,15.5-8,2.74-12.28,5.17-22.42,7.29-4,11-12.26,13.52-20,13C354,174,348.32,178.65,340,181.77c-10,6.42-15.35,7.85-25.84,9.55-7,.53-14.65,3.22-22,1.62-12.81,4.64-23.76,2.64-27.48,2.44-1.6,1.57-1.55,94.95-.46,98.17C260.17,292.12,263.36,292.3,264.9,291.5Z" fill="none" stroke="#666" stroke-width="3.4"/><path d="M265.91,193.54c5.29-1.2,13.25,0,25.92-2.53,4.56-5.86,15.17-6.25,25.25-8.29,7.24-2.35,13.47-4.34,23-6.9,5.79-5.1,12.34-8.91,21.48-12.16,6.06-1.61,13.24-6,19.76-16,6.8-1.2,10.14-7,15.77-7.5,6.31-5.23,11.4-8.47,16-17.52,7.24-3.4,12.8-11.15,15.73-12.08,6.63-7.42,10.46-10,12.47-20.47A227.11,227.11,0,0,0,262.8,10c-.06.56-1.17,181.42,0,177C263.06,192.25,262.23,193,265.91,193.54Z" fill="none" stroke="#666" stroke-width="3.4"/><path d="M250.54,387.12c-9.67,2-10,1.92-19,1.59-12.07,2.78-20.44,3.56-34.05,4.63-8.54,4-19.51,7.38-33.35,10.11-5.19,4-13.76,7.27-28.39,10-9,5.87-14.06,9-22.08,12.12-12.53,4.88-18.14,10.54-23.67,14.86,38.66,38.82,94.51,61.47,156.25,63.47,2.6-2.07,2.27-.93,3.7-1.31,2.81.76-2.46-113.86,3.47-115.19C249.88,388.08,248.73,388.74,250.54,387.12Z" fill="none" stroke="#4c4c4c" stroke-width="2.55"/><path d="M6.74,278C14,341.62,38,395.16,81.56,435.28c11.87-8,21.46-10.33,23.32-13.74,7.46-5.77,16.54-11.57,30.21-14.45,13-3.3,17.3-9,28.28-10.16,7.94-5.45,19.17-7.11,38.47-10.51,8.86-1.35,16.41-4.66,31.18-5.52-1.81-.16,10.38.93,14.21-.85-1.46,1.25.09-79.62,2.5-80.7-35,.48-63.48-2.7-90.62-5.31-26.71.09-61-1.66-81.05-6.07-25.35-.67-48.54-4.73-74.45-9.23,2.86,2.55,1.47,2.94-.89.13C4.13,280.36,3.38,279.36,6.74,278Z" fill="none" stroke="#4c4c4c" stroke-width="2.55"/><path d="M9.91,274.89c3-3-6.3-.87-4.81-.69,22.21.62,42,5.88,66.51,8.09,34.37,2,62.5,2.75,83.43,9.13,30.8-.29,62.56-2.41,95.14,1.32.55-2-.41-94.27-4-93.55,6.08-3.15,4.33-.55,7,.38a150.13,150.13,0,0,0-28.68-1.47c-15.27-2.3-25-1.78-30.16-5.24-7.81-1.31-22.43-2.84-25.46-6-6.59-2.49-18.18-5.64-22.93-8.42-5.47-2.69-8.92-4.25-21.44-10.3-2.8-1.12-8.09-4.57-17.42-7.61C95,153,85.82,145,83.74,134.85c-7.88-7.32-23-16.55-24-26.9,1.08.72.44,1.77-.15,0C23.4,149.1,2.83,198.47,7,251.61c.94,6.09-4.39,15.82-4.9,23.08C7.08,272.69,7.94,272.76,9.91,274.89Z" fill="none" stroke="#4c4c4c" stroke-width="2.55"/><path d="M59,101.68c7.34-.92,3.17.63,4.21,2.21,9.27,8.08,13.89,14.2,22.41,25.66,8.67,8.22,17,15.77,24.62,23.5,5.58,4.14,15.26,6,16.71,10.93,6.5,1.24,16.8,4.21,23.73,8.82,7.53,2,12.73,5.46,18.92,10.53,10.24-1.24,15.72,2.84,23.33,6.24,9.26-2.42,20.71-1.74,29.33,2.12,2.9.5,12.15.7,26.57.74-4-1.55-1.94-1.32,5.19-1.27-6.72-.91-9-181.12-1.25-183.73-7.41,3.49-2.41,1.68-7.07,1-74.07,2-139.93,37-187.88,90.49C62.19,101.23,65.24,99.75,59,101.68Z" fill="none" stroke="#4c4c4c" stroke-width="2.55"/><path d="M422,439c-6.11-2.4-8.23-6.79-14.5-9.44-8-5.07-11.18-8.13-15.19-12.55-10.69-1.93-17.26-4.78-21.49-9.15-4.16-1.66-9.37-3.92-19.12-7.92-9.41-3.82-22.94-4.82-38.74-8.3-6.29-1.43-22-3-31.43-5.86-4.61,2.29-13.53,2.11-18,1.31-.12,1,.92,114.76.68,115.48,59.81-.72,117.49-25.06,160.58-62.92C421.92,440.82,419.27,440.08,422,439Z" fill="none" stroke="#4c4c4c" stroke-width="2.55"/><path d="M262,297.17c-2.53,3.12,2.69,84.82-4.32,83.08,10-.87,15.81.25,17.91,2,22-1.78,26.64.89,38.16,1.71,16.06,2.62,25.43,6.46,38.83,11,3.77,2.74,13.61,4.11,20,8,4.18,0,15.64,5,23.42,9.73.46.84,10.14,4.84,18.94,11.27-1.68,1.37,1.72,4.46,15.16,11.5,36.43-41.68,70.11-98.38,72.12-161.54C493.82,279,478,282,463.5,283.72c-17.29,2.93-32.29,6.61-43.38,7.28-17.38,4-34,3.68-53,4-12.5,2.69-36.1,3.44-55.23,1.77-7.37,2.56-23.55,1.33-44.74,0,2,1-5.35,2.94-9.3,1.13C265.73,298.85,267.29,299.77,262,297.17Z" fill="none" stroke="#4c4c4c" stroke-width="2.55"/><path d="M264.17,291.53c-1-2.59,6.07-2.34.75-.26,19.72,1.71,31.95.15,54.72-.34,15.73.57,26.5-.88,44-.36,23.47-4,36.27-4.06,52-5.24,12.74-2.28,37.1-5.87,50.2-8.66,15.8-.66,24.35-6.2,43.72-5.94-8.58-8.44-6.39-13.76-1.72-18.08-1.6-58.45-21.59-113.73-59.67-157.31-7.17,11.2-11,13.33-12.07,21.14-6.84,4.65-16.18,8.47-14.64,13.75-10.53,5.15-18.71,11.38-21.95,12.63-2,7-13.37,13.45-15.66,17-11.06,2.42-17.37,7.5-25.59,8.81-3.38,6.81-9.15,11.18-21.84,11-7.31,4.17-9.32,9.11-25.76,9.85-6.11,2-12.94,3.19-18.06,7.39-11.45-.89-15.55-.75-29.83,2.64,4.28-3.59-3.24,93.13,2,93.48C261.73,292.08,267.65,292.18,264.17,291.53Z" fill="none" stroke="#4c4c4c" stroke-width="2.55"/><path d="M261,191.32c14.22-.11,24-3.9,26.31,0,9.39-6.67,19.09-7.65,27.82-7.95,11-5.1,14.53-4.94,23.64-6.69,9.16-7.38,13.32-9.4,21.46-13.27,8.4-2.89,16.66-9.82,22.43-11.53,4.6-3.55,12.68-9.7,16.07-12.43,4-6.7,6.88-10.76,19-15.08.16-7.71,8.4-12.19,10.73-15.9,1.37-4.23,4.19-12.69,14.54-16.21C400.14,42.49,336.19,10.76,261.79,9.42c2.2-.83.14,182-2.72,183.88C266.74,191.66,262.84,191.2,261,191.32Z" fill="none" stroke="#4c4c4c" stroke-width="2.55"/></svg>